solid OpenSCAD_Model
  facet normal 0 1 0
    outer loop
      vertex 35.25 31 0
      vertex 12.75 31 1.5
      vertex 11.75 31 34
    endloop
  endfacet
  facet normal 0 1 0
    outer loop
      vertex 12.75 31 1.5
      vertex 35.25 31 0
      vertex 12.75 31 0
    endloop
  endfacet
  facet normal 0 1 0
    outer loop
      vertex 11.75 31 34
      vertex 12.75 31 1.5
      vertex 11.75 31 1.5
    endloop
  endfacet
  facet normal 0.822627 -0 0.568581
    outer loop
      vertex 11.75 24 34
      vertex 35.25 31 0
      vertex 11.75 31 34
    endloop
  endfacet
  facet normal 0.822627 0 0.568581
    outer loop
      vertex 35.25 31 0
      vertex 11.75 24 34
      vertex 35.25 24 0
    endloop
  endfacet
  facet normal 0 -1 0
    outer loop
      vertex 12.75 24 1.5
      vertex 11.75 24 34
      vertex 11.75 24 1.5
    endloop
  endfacet
  facet normal 0 -1 0
    outer loop
      vertex 12.75 24 1.5
      vertex 35.25 24 0
      vertex 11.75 24 34
    endloop
  endfacet
  facet normal 0 -1 0
    outer loop
      vertex 35.25 24 0
      vertex 12.75 24 1.5
      vertex 12.75 24 0
    endloop
  endfacet
  facet normal 0 0 -1
    outer loop
      vertex -35.25 81 0
      vertex -12.75 88 0
      vertex -12.75 81 0
    endloop
  endfacet
  facet normal -0 0 -1
    outer loop
      vertex -12.75 88 0
      vertex -35.25 81 0
      vertex -35.25 88 0
    endloop
  endfacet
  facet normal 0 0 -1
    outer loop
      vertex -35.25 24 0
      vertex -12.75 31 0
      vertex -12.75 24 0
    endloop
  endfacet
  facet normal -0 0 -1
    outer loop
      vertex -12.75 31 0
      vertex -35.25 24 0
      vertex -35.25 31 0
    endloop
  endfacet
  facet normal 0 0 -1
    outer loop
      vertex 7.75 24 0
      vertex 12.75 24 0
      vertex 12.75 20 0
    endloop
  endfacet
  facet normal 0 0 -1
    outer loop
      vertex 12.75 24 0
      vertex 7.75 24 0
      vertex 12.75 31 0
    endloop
  endfacet
  facet normal -0 0 -1
    outer loop
      vertex 12.75 31 0
      vertex 7.75 24 0
      vertex 12.75 81 0
    endloop
  endfacet
  facet normal 0 0 -1
    outer loop
      vertex 7.75 88 0
      vertex 12.75 81 0
      vertex 7.75 24 0
    endloop
  endfacet
  facet normal 0 0 -1
    outer loop
      vertex 12.75 81 0
      vertex 7.75 88 0
      vertex 12.75 88 0
    endloop
  endfacet
  facet normal 0 0 -1
    outer loop
      vertex 12.75 20 0
      vertex -7.75 24 0
      vertex 7.75 24 0
    endloop
  endfacet
  facet normal 0 0 -1
    outer loop
      vertex -12.75 24 0
      vertex -7.75 24 0
      vertex -12.75 20 0
    endloop
  endfacet
  facet normal 0 0 -1
    outer loop
      vertex -12.75 20 0
      vertex -7.75 24 0
      vertex 12.75 20 0
    endloop
  endfacet
  facet normal 0 0 -1
    outer loop
      vertex 12.75 24 0
      vertex 35.25 31 0
      vertex 35.25 24 0
    endloop
  endfacet
  facet normal -0 0 -1
    outer loop
      vertex 35.25 31 0
      vertex 12.75 24 0
      vertex 12.75 31 0
    endloop
  endfacet
  facet normal 0 0 -1
    outer loop
      vertex 12.75 81 0
      vertex 35.25 88 0
      vertex 35.25 81 0
    endloop
  endfacet
  facet normal -0 0 -1
    outer loop
      vertex 35.25 88 0
      vertex 12.75 81 0
      vertex 12.75 88 0
    endloop
  endfacet
  facet normal 0 0 -1
    outer loop
      vertex 12.75 88 0
      vertex 7.75 88 0
      vertex 12.75 92 0
    endloop
  endfacet
  facet normal 0 0 -1
    outer loop
      vertex -7.75 88 0
      vertex 12.75 92 0
      vertex 7.75 88 0
    endloop
  endfacet
  facet normal 0 0 -1
    outer loop
      vertex -12.75 31 0
      vertex -7.75 24 0
      vertex -12.75 24 0
    endloop
  endfacet
  facet normal 0 0 -1
    outer loop
      vertex -7.75 24 0
      vertex -12.75 31 0
      vertex -7.75 88 0
    endloop
  endfacet
  facet normal 0 0 -1
    outer loop
      vertex -12.75 81 0
      vertex -7.75 88 0
      vertex -12.75 31 0
    endloop
  endfacet
  facet normal 0 0 -1
    outer loop
      vertex -12.75 88 0
      vertex -7.75 88 0
      vertex -12.75 81 0
    endloop
  endfacet
  facet normal 0 0 -1
    outer loop
      vertex -12.75 92 0
      vertex -7.75 88 0
      vertex -12.75 88 0
    endloop
  endfacet
  facet normal 0 0 -1
    outer loop
      vertex -7.75 88 0
      vertex -12.75 92 0
      vertex 12.75 92 0
    endloop
  endfacet
  facet normal -1 0 0
    outer loop
      vertex 11.75 24 1.5
      vertex 11.75 31 34
      vertex 11.75 31 1.5
    endloop
  endfacet
  facet normal -1 -0 0
    outer loop
      vertex 11.75 31 34
      vertex 11.75 24 1.5
      vertex 11.75 24 34
    endloop
  endfacet
  facet normal 0 1 0
    outer loop
      vertex 35.25 88 0
      vertex 12.75 88 1.5
      vertex 11.75 88 34
    endloop
  endfacet
  facet normal 0 1 0
    outer loop
      vertex 12.75 88 1.5
      vertex 35.25 88 0
      vertex 12.75 88 0
    endloop
  endfacet
  facet normal 0 1 0
    outer loop
      vertex 11.75 88 34
      vertex 12.75 88 1.5
      vertex 11.75 88 1.5
    endloop
  endfacet
  facet normal 0.822627 -0 0.568581
    outer loop
      vertex 11.75 81 34
      vertex 35.25 88 0
      vertex 11.75 88 34
    endloop
  endfacet
  facet normal 0.822627 0 0.568581
    outer loop
      vertex 35.25 88 0
      vertex 11.75 81 34
      vertex 35.25 81 0
    endloop
  endfacet
  facet normal 0 -1 0
    outer loop
      vertex 12.75 81 1.5
      vertex 11.75 81 34
      vertex 11.75 81 1.5
    endloop
  endfacet
  facet normal 0 -1 0
    outer loop
      vertex 12.75 81 1.5
      vertex 35.25 81 0
      vertex 11.75 81 34
    endloop
  endfacet
  facet normal 0 -1 0
    outer loop
      vertex 35.25 81 0
      vertex 12.75 81 1.5
      vertex 12.75 81 0
    endloop
  endfacet
  facet normal -1 0 0
    outer loop
      vertex 11.75 81 1.5
      vertex 11.75 88 34
      vertex 11.75 88 1.5
    endloop
  endfacet
  facet normal -1 -0 0
    outer loop
      vertex 11.75 88 34
      vertex 11.75 81 1.5
      vertex 11.75 81 34
    endloop
  endfacet
  facet normal 0 1 0
    outer loop
      vertex -12.75 31 1.5
      vertex -11.75 31 34
      vertex -11.75 31 1.5
    endloop
  endfacet
  facet normal 0 1 -0
    outer loop
      vertex -12.75 31 1.5
      vertex -35.25 31 0
      vertex -11.75 31 34
    endloop
  endfacet
  facet normal 0 1 0
    outer loop
      vertex -35.25 31 0
      vertex -12.75 31 1.5
      vertex -12.75 31 0
    endloop
  endfacet
  facet normal -0.822627 0 0.568581
    outer loop
      vertex -35.25 24 0
      vertex -11.75 31 34
      vertex -35.25 31 0
    endloop
  endfacet
  facet normal -0.822627 0 0.568581
    outer loop
      vertex -11.75 31 34
      vertex -35.25 24 0
      vertex -11.75 24 34
    endloop
  endfacet
  facet normal 0 -1 0
    outer loop
      vertex -35.25 24 0
      vertex -12.75 24 1.5
      vertex -11.75 24 34
    endloop
  endfacet
  facet normal 0 -1 -0
    outer loop
      vertex -12.75 24 1.5
      vertex -35.25 24 0
      vertex -12.75 24 0
    endloop
  endfacet
  facet normal 0 -1 -0
    outer loop
      vertex -11.75 24 34
      vertex -12.75 24 1.5
      vertex -11.75 24 1.5
    endloop
  endfacet
  facet normal 1 -0 0
    outer loop
      vertex -11.75 24 34
      vertex -11.75 31 1.5
      vertex -11.75 31 34
    endloop
  endfacet
  facet normal 1 0 0
    outer loop
      vertex -11.75 31 1.5
      vertex -11.75 24 34
      vertex -11.75 24 1.5
    endloop
  endfacet
  facet normal 0 1 0
    outer loop
      vertex -12.75 88 1.5
      vertex -11.75 88 34
      vertex -11.75 88 1.5
    endloop
  endfacet
  facet normal 0 1 -0
    outer loop
      vertex -12.75 88 1.5
      vertex -35.25 88 0
      vertex -11.75 88 34
    endloop
  endfacet
  facet normal 0 1 0
    outer loop
      vertex -35.25 88 0
      vertex -12.75 88 1.5
      vertex -12.75 88 0
    endloop
  endfacet
  facet normal -0.822627 0 0.568581
    outer loop
      vertex -35.25 81 0
      vertex -11.75 88 34
      vertex -35.25 88 0
    endloop
  endfacet
  facet normal -0.822627 0 0.568581
    outer loop
      vertex -11.75 88 34
      vertex -35.25 81 0
      vertex -11.75 81 34
    endloop
  endfacet
  facet normal 0 -1 0
    outer loop
      vertex -35.25 81 0
      vertex -12.75 81 1.5
      vertex -11.75 81 34
    endloop
  endfacet
  facet normal 0 -1 -0
    outer loop
      vertex -12.75 81 1.5
      vertex -35.25 81 0
      vertex -12.75 81 0
    endloop
  endfacet
  facet normal 0 -1 -0
    outer loop
      vertex -11.75 81 34
      vertex -12.75 81 1.5
      vertex -11.75 81 1.5
    endloop
  endfacet
  facet normal 1 -0 0
    outer loop
      vertex -11.75 81 34
      vertex -11.75 88 1.5
      vertex -11.75 88 34
    endloop
  endfacet
  facet normal 1 0 0
    outer loop
      vertex -11.75 88 1.5
      vertex -11.75 81 34
      vertex -11.75 81 1.5
    endloop
  endfacet
  facet normal 1 -0 0
    outer loop
      vertex 12.75 88 1.5
      vertex 12.75 92 0
      vertex 12.75 92 1.5
    endloop
  endfacet
  facet normal 1 0 0
    outer loop
      vertex 12.75 92 0
      vertex 12.75 88 1.5
      vertex 12.75 88 0
    endloop
  endfacet
  facet normal 1 -0 0
    outer loop
      vertex 12.75 20 1.5
      vertex 12.75 24 0
      vertex 12.75 24 1.5
    endloop
  endfacet
  facet normal 1 0 0
    outer loop
      vertex 12.75 24 0
      vertex 12.75 20 1.5
      vertex 12.75 20 0
    endloop
  endfacet
  facet normal 1 -0 0
    outer loop
      vertex 12.75 31 1.5
      vertex 12.75 81 0
      vertex 12.75 81 1.5
    endloop
  endfacet
  facet normal 1 0 0
    outer loop
      vertex 12.75 81 0
      vertex 12.75 31 1.5
      vertex 12.75 31 0
    endloop
  endfacet
  facet normal -0 0 1
    outer loop
      vertex -12.75 81 1.5
      vertex -11.75 31 1.5
      vertex -11.75 81 1.5
    endloop
  endfacet
  facet normal 0 0 1
    outer loop
      vertex -11.75 31 1.5
      vertex -12.75 81 1.5
      vertex -12.75 31 1.5
    endloop
  endfacet
  facet normal 0 0 1
    outer loop
      vertex 12.75 92 1.5
      vertex 11.75 88 1.5
      vertex 12.75 88 1.5
    endloop
  endfacet
  facet normal -0 0 1
    outer loop
      vertex 7.75 88 1.5
      vertex 11.75 81 1.5
      vertex 11.75 88 1.5
    endloop
  endfacet
  facet normal 0 0 1
    outer loop
      vertex 11.75 81 1.5
      vertex 7.75 88 1.5
      vertex 11.75 31 1.5
    endloop
  endfacet
  facet normal 0 0 1
    outer loop
      vertex 7.75 24 1.5
      vertex 11.75 31 1.5
      vertex 7.75 88 1.5
    endloop
  endfacet
  facet normal 0 0 1
    outer loop
      vertex 12.75 92 1.5
      vertex 7.75 88 1.5
      vertex 11.75 88 1.5
    endloop
  endfacet
  facet normal 0 0 1
    outer loop
      vertex 12.75 92 1.5
      vertex -7.75 88 1.5
      vertex 7.75 88 1.5
    endloop
  endfacet
  facet normal 0 0 1
    outer loop
      vertex -11.75 81 1.5
      vertex -7.75 88 1.5
      vertex -11.75 88 1.5
    endloop
  endfacet
  facet normal -0 0 1
    outer loop
      vertex -12.75 92 1.5
      vertex -7.75 88 1.5
      vertex 12.75 92 1.5
    endloop
  endfacet
  facet normal 0 0 1
    outer loop
      vertex -7.75 88 1.5
      vertex -12.75 92 1.5
      vertex -11.75 88 1.5
    endloop
  endfacet
  facet normal 0 0 1
    outer loop
      vertex -11.75 88 1.5
      vertex -12.75 92 1.5
      vertex -12.75 88 1.5
    endloop
  endfacet
  facet normal -0 0 1
    outer loop
      vertex 11.75 81 1.5
      vertex 12.75 31 1.5
      vertex 12.75 81 1.5
    endloop
  endfacet
  facet normal 0 0 1
    outer loop
      vertex 12.75 31 1.5
      vertex 11.75 81 1.5
      vertex 11.75 31 1.5
    endloop
  endfacet
  facet normal -0 0 1
    outer loop
      vertex 11.75 24 1.5
      vertex 12.75 20 1.5
      vertex 12.75 24 1.5
    endloop
  endfacet
  facet normal 0 0 1
    outer loop
      vertex 11.75 31 1.5
      vertex 7.75 24 1.5
      vertex 11.75 24 1.5
    endloop
  endfacet
  facet normal -0 0 1
    outer loop
      vertex 7.75 24 1.5
      vertex 12.75 20 1.5
      vertex 11.75 24 1.5
    endloop
  endfacet
  facet normal -0 0 1
    outer loop
      vertex -7.75 24 1.5
      vertex 12.75 20 1.5
      vertex 7.75 24 1.5
    endloop
  endfacet
  facet normal 0 0 1
    outer loop
      vertex -7.75 88 1.5
      vertex -11.75 81 1.5
      vertex -7.75 24 1.5
    endloop
  endfacet
  facet normal -0 0 1
    outer loop
      vertex -11.75 31 1.5
      vertex -7.75 24 1.5
      vertex -11.75 81 1.5
    endloop
  endfacet
  facet normal 0 0 1
    outer loop
      vertex -11.75 24 1.5
      vertex -7.75 24 1.5
      vertex -11.75 31 1.5
    endloop
  endfacet
  facet normal 0 0 1
    outer loop
      vertex -12.75 20 1.5
      vertex -7.75 24 1.5
      vertex -11.75 24 1.5
    endloop
  endfacet
  facet normal 0 0 1
    outer loop
      vertex -12.75 20 1.5
      vertex -11.75 24 1.5
      vertex -12.75 24 1.5
    endloop
  endfacet
  facet normal 0 0 1
    outer loop
      vertex -7.75 24 1.5
      vertex -12.75 20 1.5
      vertex 12.75 20 1.5
    endloop
  endfacet
  facet normal -1 0 0
    outer loop
      vertex -12.75 88 0
      vertex -12.75 92 1.5
      vertex -12.75 92 0
    endloop
  endfacet
  facet normal -1 -0 0
    outer loop
      vertex -12.75 92 1.5
      vertex -12.75 88 0
      vertex -12.75 88 1.5
    endloop
  endfacet
  facet normal -1 0 0
    outer loop
      vertex -12.75 20 0
      vertex -12.75 24 1.5
      vertex -12.75 24 0
    endloop
  endfacet
  facet normal -1 -0 0
    outer loop
      vertex -12.75 24 1.5
      vertex -12.75 20 0
      vertex -12.75 20 1.5
    endloop
  endfacet
  facet normal -1 0 0
    outer loop
      vertex -12.75 31 0
      vertex -12.75 81 1.5
      vertex -12.75 81 0
    endloop
  endfacet
  facet normal -1 -0 0
    outer loop
      vertex -12.75 81 1.5
      vertex -12.75 31 0
      vertex -12.75 31 1.5
    endloop
  endfacet
  facet normal 0 1 -0
    outer loop
      vertex 12.75 92 0
      vertex -12.75 92 1.5
      vertex 12.75 92 1.5
    endloop
  endfacet
  facet normal 0 1 0
    outer loop
      vertex -12.75 92 1.5
      vertex 12.75 92 0
      vertex -12.75 92 0
    endloop
  endfacet
  facet normal 0 -1 0
    outer loop
      vertex -12.75 20 0
      vertex 12.75 20 1.5
      vertex -12.75 20 1.5
    endloop
  endfacet
  facet normal 0 -1 -0
    outer loop
      vertex 12.75 20 1.5
      vertex -12.75 20 0
      vertex 12.75 20 0
    endloop
  endfacet
  facet normal -1 0 0
    outer loop
      vertex 7.75 24 0
      vertex 7.75 88 1.5
      vertex 7.75 88 0
    endloop
  endfacet
  facet normal -1 -0 0
    outer loop
      vertex 7.75 88 1.5
      vertex 7.75 24 0
      vertex 7.75 24 1.5
    endloop
  endfacet
  facet normal 1 -0 0
    outer loop
      vertex -7.75 24 1.5
      vertex -7.75 88 0
      vertex -7.75 88 1.5
    endloop
  endfacet
  facet normal 1 0 0
    outer loop
      vertex -7.75 88 0
      vertex -7.75 24 1.5
      vertex -7.75 24 0
    endloop
  endfacet
  facet normal 0 -1 0
    outer loop
      vertex -7.75 88 0
      vertex 7.75 88 1.5
      vertex -7.75 88 1.5
    endloop
  endfacet
  facet normal 0 -1 -0
    outer loop
      vertex 7.75 88 1.5
      vertex -7.75 88 0
      vertex 7.75 88 0
    endloop
  endfacet
  facet normal 0 1 -0
    outer loop
      vertex 7.75 24 0
      vertex -7.75 24 1.5
      vertex 7.75 24 1.5
    endloop
  endfacet
  facet normal 0 1 0
    outer loop
      vertex -7.75 24 1.5
      vertex 7.75 24 0
      vertex -7.75 24 0
    endloop
  endfacet
endsolid OpenSCAD_Model
